<svg height="128" width="128" xmlns="http://www.w3.org/2000/svg"><linearGradient id="a" gradientUnits="userSpaceOnUse" x1="36" x2="120" y1="92" y2="8"><stop offset="0" stop-color="#deddda"/><stop offset="1" stop-color="#f6f5f4"/></linearGradient><g stroke-width="4"><path d="M120 12s-48.932 6.888-72 24C34.288 46.172 16 76 16 76l40 40s27.884-17.068 40-32c18.096-22.304 24-72 24-72z" fill="#c0bfbc"/><path d="M120 8s-48.932 6.888-72 24C34.288 42.172 16 72 16 72l40 40s27.884-17.068 40-32c18.096-22.304 24-72 24-72z" fill="url(#a)"/><path d="M80 32a16 16 0 0 0-16 16 16 16 0 0 0 16 16 16 16 0 0 0 16-16 16 16 0 0 0-16-16z" fill="#9a9996"/><path d="M80 36a12 12 0 0 0-12 12 12 12 0 0 0 12 12 12 12 0 0 0 12-12 12 12 0 0 0-12-12z" fill="#241f31"/><path d="M40 44L8 92V68l32-28zM88 92v-4l-48 32v4h24zM24 92l36-24v4l-20 36-24 8v-4z" fill="#a51d2d"/><g fill="#e01b24"><path d="M40 40L8 88V64zM88 88l-48 32h24zM24 88l36-20-20 36-24 8zM120 8s-11.84 1.676-26.6 5.4l21.544 21.544A255.88 255.88 0 0 0 120 8z"/></g><path d="M80 36a12 12 0 0 0-12 12 12 12 0 0 0 10.44 11.88l6.796-22.668A12 12 0 0 0 80 36z" fill="#fff" opacity=".2"/></g></svg>